<svg
      xmlns="http://www.w3.org/2000/svg"
      width="695.534"
      height="623.304"
      version="1.1"
      viewBox="0 0 184.027 164.916"
    >
      <path
        fill="#ff6a07"
        fillOpacity="1"
        fillRule="evenodd"
        stroke="#f60"
        strokeLinecap="butt"
        strokeLinejoin="miter"
        strokeOpacity="1"
        strokeWidth="0.074"
        d="M100.846.038zm0 0v.003c-.236.003-.471.01-.706.025l-.112.008h-.016c-.22.016-.44.038-.659.066l-.07.009a11.56 11.56 0 00-3.534 1.044l-.14.067-.072.037-.027.014c-.093.048-.185.097-.276.147l-.02.011c-.097.054-.194.11-.29.166-1.144.683-2.023 1.477-2.845 2.471 0 0 0 .003-.003.003l-.074.092L92 4.21c-.668.903-.789 1.951-.91 2.869-.994 3.557-2.43 7.27-3.927 10.176-1.146 2.171-2.485 4.239-4.139 6.012-.089.095-.179.189-.27.282.511.078 1.022.16 1.531.244 1.608-1.8 2.907-3.837 4.016-5.938 1.564-2.962 2.803-6.08 3.803-9.26.012-.036.021-.073.032-.109.253-.334.392-.655.536-.865.971-1.416 2.089-2.722 3.414-3.755.323-.252.659-.486 1.005-.701-.653 2.761-2.747 11.557-9.45 21.241l.198.04c6.607-7.973 8.06-11.748 10.468-21.927a8.88 8.88 0 011.455-.506 8.735 8.735 0 012.227-.257c.45.006.901.045 1.346.117-.584 5.32-5.467 13.306-6.19 23.226l.122-.007c1.87-9.401 6.417-19.31 7.832-22.772.915.312 1.8.735 2.646 1.23.299.547.417 1.225.422 1.92.007 1.118-.206 2.256-.477 3.402-.594 2.513-1.474 5.018-1.925 7.683-.143.849-.305 1.76-.241 2.722.041.626.306 1.142.557 1.565.543.917 1.207 1.703 1.81 2.473.385.491.764.954 1.074 1.425.497 0 .993 0 1.49.005a10.97 10.97 0 00-.067-.128c-.428-.805-.989-1.464-1.484-2.095-.621-.794-1.244-1.54-1.716-2.336-.212-.358-.36-.698-.38-.994-.05-.76.083-1.572.226-2.421.427-2.523 1.294-5.003 1.908-7.603.28-1.182.52-2.42.512-3.705-.005-.78-.122-1.616-.502-2.38 0-.011.005-.046.005-.046l-.053-.173s-.062-.106-.081-.13c-.076-.094-.085-.088-.101-.101l-.064-.05C107.535.98 105.405.726 103.877.375c-.005 0-.008-.003-.01-.003a14.68 14.68 0 00-.209-.046l-.156-.032a13.784 13.784 0 00-.466-.084l-.058-.01a13.065 13.065 0 00-.353-.051c-.01 0-.019-.003-.028-.004-.58-.074-1.166-.11-1.751-.106zm6.667 3.41c-6.76 10.108-6.226 17.756-5 21.407-.226.008-.453.014-.68.023-3.188.116-6.374.304-9.554.552l-.199-.048c4.251-6.122 6.23-10.97 7.153-19.975-1.536 8.49-5.384 15.444-8.223 19.723a111.933 111.933 0 00-6.115-1.233c5.778-5.579 7.192-10.066 8.236-16.593-1.564 5.029-3.447 10.88-8.456 16.555-5.59-.953-11.261-1.472-16.928-1.485-5.65-.012-11.294.48-16.853 1.547-10.507 2.018-20.708 6.217-29.119 12.912C2.993 52.93-2.023 81.208.745 103.624c1.268 8.76 4.418 17.248 9.258 24.67 5.721 8.772 13.594 16.014 22.392 21.603 2.378 1.51 4.748 3.039 7.21 4.41 10.581 5.893 22.532 9.038 34.547 10.116 14.912 1.337 30.032-.314 44.433-4.333 12.017-3.354 23.566-8.445 34.048-15.213 8.54-5.515 16.357-12.38 22.063-20.86 4.635-6.886 7.621-14.852 8.732-23.08 1.352-10.019.19-20.284-2.712-29.913-3.741-12.427-12.28-26.173-21.39-33.45-6.862-5.223-15.084-8.38-23.451-10.22-9.686-2.13-19.631-2.74-29.533-2.592-6.8-7.323 1.27-18.047 1.171-21.314zM58.023 24.78c3.265.007 5.407.736 6.24 1.355-7.236 2.144-12.343-4.559-38.813 14.817C39.948 27.777 51.34 24.765 58.024 24.78zm50.568.587c5.771-.005 15.329 2.551 25.616 9.067 3.779 2.855 7.451 5.91 10.473 9.542 19.866 23.881 27.863 61.931-3.836 103.696 39.414-57.313 9.668-91.522-6.637-113.238-18.76-9.328-32.095-9.19-29.952-4.035-2.901-3.03-.756-5.028 4.336-5.032zm-28.698.087c4.721.01 7.123 1.777 6.393 3.47-4.025-1.102-3.55-8.438-36.781 11.097 13.094-11.296 23.919-14.58 30.388-14.567zm12.286 2.323c2.284.02 3.8.763 3.983 2.025-3.707-.016-8.48-4.137-24.154 10.53-5.3 9.026-9.384 19.91-11.743 32.209l13.489 13.01c-2.172 3.494-11.45 6.878-15.728 8.287-.296 12.396 1.045 25.754 4.397 39.746l3.729 5.121c4.49-5.087 10.055-12.292 10.055-12.292l9.876 16.433 8.49-13.217 10.957 10.58 2.235-11.492c.724-.234 1.445-.48 2.164-.736l7.98 7.056c4.95-15.928 6.714-29.517 6.57-41.101-4.121-1.343-13.8-4.805-16.025-8.385l13.407-12.93c-3.858-15.937-10.933-26.28-14.037-32.91 7.968 9.946 12.972 20.491 15.691 31.313l10.744-10.361c5.309 9.759-7.89 33.866-7.89 33.866l-.278-.085c-.24 13.772-3.283 27.618-7.816 40.916l2.623 2.32 2.075-15.31 5.864 6.942 6.352-17.047c.15-.149.298-.298.446-.449l5.408 5.723 10.538-25.64-7.983 34.518-8.843-.883-2.014 14.765c-.143.127-.288.253-.432.378l-5.88-7.095-5.232 14.377-.239.115-9.522-9.26-4.379 13.915c-.38.08-.76.156-1.141.229l-11.148-11.884-5.246 13.086a76.6 76.6 0 01-.896-.04l-12.61-14.563-7.54 14.012-11.564-18.93-5.634 7.33-6.135-12.876-2.759 5.11-10.413-25.548 3.526 8.085 6.415 12.159 3.375-6.73a7060.466 7060.466 0 006.03 12.924c2.825-1.992 7.734-6.142 7.734-6.142l1.46 2.005c-3.232-12.073-5.045-24.684-4.984-37.014-1.888-3.584-12.422-24.375-7.578-33.28l10.193 9.832c2.546-11.016 7.038-21.302 13.866-30.163 6.414-9.139 15.148-12.598 20.171-12.554zm40.791.735c3.697.018 10.602 3.038 22.964 13.06 13.817 9.215 43.77 49.738.335 95.237 25.644-35.704 29.372-64.744-.335-95.236-16.072-10.84-18.285-10.205-25.52-12.348.594-.442 1.425-.718 2.556-.713zM21.725 43.125c-6.682 12.007-30.842 40.425 5.78 100.822C-.145 107.002-.422 68.651 21.724 43.125zm21.417.62c-31.768 32.035-11.937 80.88-.739 107.652-32.586-63.832-18.36-93.385.739-107.652z"
      ></path>
    </svg>